<?xml version="1.0" encoding="iso-8859-1"?>
<!-- Uploaded to: SVG Repo, www.svgrepo.com, Generator: SVG Repo Mixer Tools -->
<svg version="1.1" id="Layer_1" xmlns="http://www.w3.org/2000/svg" xmlns:xlink="http://www.w3.org/1999/xlink" 
	 viewBox="0 0 512 512" xml:space="preserve">
<path style="fill:#F9A926;" d="M512,278.261H0V16.696C0,7.475,7.475,0,16.696,0h478.609C504.525,0,512,7.475,512,16.696V278.261z"/>
<path style="fill:#F29718;" d="M495.304,0H256v278.261h256V16.696C512,7.475,504.525,0,495.304,0z"/>
<path style="fill:#EDF0F2;" d="M33.391,244.87h445.217V33.391H33.391V244.87z"/>
<rect x="256" y="33.391" style="fill:#DAE1E6;" width="222.609" height="211.478"/>
<path style="fill:#FFC033;" d="M495.304,512H16.696C7.475,512,0,504.525,0,495.304V244.87h512v250.435
	C512,504.525,504.525,512,495.304,512z"/>
<path style="fill:#F9A926;" d="M256,512h239.304c9.22,0,16.696-7.475,16.696-16.696V244.87H256V512z"/>
<path style="fill:#57C3D9;" d="M150.261,361.739h-16.696v-16.696c0-9.223-7.479-16.696-16.696-16.696s-16.696,7.473-16.696,16.696
	v16.696H83.478c-9.217,0-16.696,7.473-16.696,16.696s7.479,16.696,16.696,16.696h16.696v16.696c0,9.223,7.479,16.696,16.696,16.696
	s16.696-7.473,16.696-16.696V395.13h16.696c9.217,0,16.696-7.473,16.696-16.696S159.478,361.739,150.261,361.739z"/>
<g>
	<circle style="fill:#3DB1CC;" cx="395.13" cy="345.043" r="16.696"/>
	<circle style="fill:#3DB1CC;" cx="395.13" cy="411.826" r="16.696"/>
	<circle style="fill:#3DB1CC;" cx="428.522" cy="378.435" r="16.696"/>
	<circle style="fill:#3DB1CC;" cx="361.739" cy="378.435" r="16.696"/>
</g>
<path style="fill:#736056;" d="M311.652,428.522H200.348c-9.217,0-16.696-7.473-16.696-16.696v-66.783
	c0-9.223,7.479-16.696,16.696-16.696h111.304c9.217,0,16.696,7.473,16.696,16.696v66.783
	C328.348,421.049,320.869,428.522,311.652,428.522z"/>
<path style="fill:#665247;" d="M311.652,328.348H256v100.174h55.652c9.217,0,16.696-7.473,16.696-16.696v-66.783
	C328.348,335.821,320.869,328.348,311.652,328.348z"/>
<path style="fill:#736056;" d="M428.522,211.478H83.478c-9.217,0-16.696-7.473-16.696-16.696V83.478
	c0-9.223,7.479-16.696,16.696-16.696h345.043c9.217,0,16.696,7.473,16.696,16.696v111.304
	C445.217,204.005,437.739,211.478,428.522,211.478z"/>
<path style="fill:#665247;" d="M428.522,66.783H256v144.696h172.522c9.217,0,16.696-7.473,16.696-16.696V83.478
	C445.217,74.256,437.739,66.783,428.522,66.783z"/>
</svg>